<svg width="720" height="160" viewBox="0 0 720 160" fill="none" xmlns="http://www.w3.org/2000/svg">
  <rect width="720" height="160" rx="34" fill="#0B1518"/>
  <g transform="translate(31 31)">
    <rect x="1" y="1" width="96" height="96" rx="27" fill="#C8F43D"/>
    <g fill="#0B1518" transform="translate(17 17)">
      <rect x="29" y="5" width="6" height="12" rx="2"/>
      <rect x="29" y="47" width="6" height="12" rx="2"/>
      <rect x="47" y="29" width="12" height="6" rx="2"/>
      <rect x="5" y="29" width="12" height="6" rx="2"/>
      <rect x="29" y="5" width="6" height="12" rx="2" transform="rotate(45 32 32)"/>
      <rect x="29" y="47" width="6" height="12" rx="2" transform="rotate(45 32 32)"/>
      <rect x="47" y="29" width="12" height="6" rx="2" transform="rotate(45 32 32)"/>
      <rect x="5" y="29" width="12" height="6" rx="2" transform="rotate(45 32 32)"/>
      <path fill-rule="evenodd" d="M32 12a20 20 0 1 1 0 40 20 20 0 0 1 0-40Zm0 10a10 10 0 1 0 0 20 10 10 0 0 0 0-20Z"/>
      <text x="32" y="36.2" fill="#0B1518" text-anchor="middle" font-family="Arial, Helvetica, sans-serif" font-size="11.5" font-weight="900" letter-spacing="-1.25">AM</text>
      <path d="M14 49.5H50" stroke="#0B1518" stroke-width="1.5" stroke-linecap="round" opacity=".32"/>
    </g>
  </g>
  <text x="158" y="70" fill="#FFFEFA" font-family="Arial, Helvetica, sans-serif" font-size="29" font-weight="800" letter-spacing="-.6">MOHAMMED ESSOMMANI</text>
  <text x="159" y="100" fill="#C8F43D" font-family="Arial, Helvetica, sans-serif" font-size="14" font-weight="700" letter-spacing="2.25">ARTS &amp; MÉTIERS · INGÉNIERIE MÉCANIQUE</text>
  <path d="M159 118H675" stroke="white" stroke-opacity=".15"/>
  <text x="159" y="137" fill="#829092" font-family="Arial, Helvetica, sans-serif" font-size="10" letter-spacing="1.15">CONCEPTION · SYSTÈMES INDUSTRIELS · FIABILITÉ</text>
</svg>
