<svg width="760" height="176" viewBox="0 0 760 176" fill="none" xmlns="http://www.w3.org/2000/svg">
  <rect width="760" height="176" rx="36" fill="#0B1518"/>
  <g transform="translate(24 24)">
    <rect x="2" y="2" width="124" height="124" rx="36" fill="#F4EFE6"/>
    <g transform="translate(16 16)">
      <path d="M17 61.5A34 34 0 0 1 71.5 21" stroke="#243C78" stroke-width="7.5" stroke-linecap="round"/>
      <path d="M79 34.5A34 34 0 0 1 24.5 75" stroke="#C77B3D" stroke-width="7.5" stroke-linecap="round"/>
      <path d="M27 66V34.5L48 57L69 34.5V66" stroke="#0B1518" stroke-width="9" stroke-linecap="round" stroke-linejoin="round"/>
      <circle cx="48" cy="57" r="8.5" fill="#F4EFE6" stroke="#0B1518" stroke-width="4.5"/>
      <circle cx="48" cy="57" r="2.7" fill="#C77B3D"/>
      <path d="M18 77.5H31" stroke="#243C78" stroke-width="2.5" stroke-linecap="round"/>
      <path d="M65 18.5H78" stroke="#C77B3D" stroke-width="2.5" stroke-linecap="round"/>
    </g>
  </g>
  <text x="178" y="73" fill="#FFFEFA" font-family="Arial, Helvetica, sans-serif" font-size="31" font-weight="800" letter-spacing="-.8">MOHAMMED ESSOMMANI</text>
  <text x="179" y="106" fill="#D79A63" font-family="Arial, Helvetica, sans-serif" font-size="13" font-weight="700" letter-spacing="2.45">ARTS &amp; MÉTIERS · GÉNIE MÉCANIQUE</text>
  <path d="M179 125H714" stroke="white" stroke-opacity=".14"/>
  <text x="179" y="147" fill="#829092" font-family="Arial, Helvetica, sans-serif" font-size="10" letter-spacing="1.35">CONCEPTION · ROTATION · FIABILITÉ INDUSTRIELLE</text>
</svg>
